<svg width="16" height="17" viewBox="0 0 16 17" fill="none" xmlns="http://www.w3.org/2000/svg">
<g clip-path="url(#clip0_2232_38146)">
<path d="M7.63499 9.84587C4.79383 10.1027 2.62927 12.5034 2.66699 15.3559V15.5005C2.66699 16.0528 3.11471 16.5005 3.66699 16.5005C4.21927 16.5005 4.66699 16.0528 4.66699 15.5005V15.3159C4.63693 13.5645 5.92943 12.0709 7.66699 11.8492C9.50115 11.6673 11.1355 13.0068 11.3174 14.8409C11.3281 14.9494 11.3336 15.0583 11.3336 15.1672V15.5005C11.3336 16.0528 11.7814 16.5005 12.3336 16.5005C12.8859 16.5005 13.3336 16.0528 13.3336 15.5005V15.1672C13.3304 12.2183 10.9372 9.83049 7.98843 9.83374C7.87052 9.8339 7.75265 9.83793 7.63499 9.84587Z" fill="#475467"/>
<path d="M8.00049 8.5C10.2096 8.5 12.0005 6.70913 12.0005 4.5C12.0005 2.29087 10.2096 0.5 8.00049 0.5C5.79136 0.5 4.00049 2.29087 4.00049 4.5C4.00268 6.70822 5.79227 8.49778 8.00049 8.5ZM8.00049 2.5C9.10505 2.5 10.0005 3.39544 10.0005 4.5C10.0005 5.60456 9.10505 6.5 8.00049 6.5C6.89593 6.5 6.00049 5.60456 6.00049 4.5C6.00049 3.39544 6.89593 2.5 8.00049 2.5Z" fill="#475467"/>
</g>
<defs>
<clipPath id="clip0_2232_38146">
<rect width="16" height="16" fill="white" transform="translate(0 0.5)"/>
</clipPath>
</defs>
</svg>
